<?xml version="1.0" encoding="utf-8"?>
<!-- Generator: Adobe Illustrator 21.0.0, SVG Export Plug-In . SVG Version: 6.00 Build 0)  -->
<svg version="1.1" xmlns="http://www.w3.org/2000/svg" xmlns:xlink="http://www.w3.org/1999/xlink" x="0px" y="0px"
	 viewBox="0 0 1000 500" style="enable-background:new 0 0 1000 500;" xml:space="preserve">
<style type="text/css">
	.st0{stroke:#000000;stroke-linecap:square;stroke-miterlimit:10;}
</style>
<g id="T">
	<path class="st0" d="M799.5,400.5h50v-250h50v-50h-300v50h200v57.4c16,22.4,24.5,49.6,24.5,79.1c0,29.4-8.5,56.7-24.5,79.1V400.5z"
		/>
</g>
<g id="s">
	<path class="st0" d="M696.3,349.4c12.9-1.8,25.4-7.7,35.3-17.7c18.3-18.3,22.9-45.1,13.7-67.7L627.6,382.8
		c-7-4.4-13.6-9.6-19.7-15.7C564,323.1,564,251.9,608,208c31.2-31.2,76.3-40.3,115.5-27.1l-44.8,44.8c-12.9,1.8-25.4,7.7-35.4,17.7
		c-18.1,18.1-22.8,44.6-14,67l118.1-118.1c7,4.4,13.6,9.6,19.6,15.7C811,251.9,811,323.1,767,367c-31.2,31.2-76.3,40.3-115.5,27.1
		L696.3,349.4z"/>
</g>
<g id="i_2">
	<rect x="499.5" y="200.5" class="st0" width="50" height="125"/>
	<circle class="st0" cx="526" cy="125" r="25"/>
</g>
<g id="L">
	<path class="st0" d="M400.5,400.5L400.5,400.5h150v-49h-100v-251h-50V159c17,26.5,24.9,57.7,24.9,91c0,33.3-9,64.7-25.2,91.3
		L400.5,400.5z"/>
</g>
<g id="D">
	<path class="st0" d="M356.1,143.9c-5.9-5.9-12.2-11.2-18.7-15.9L128,337.3c4.7,6.6,10,12.8,15.9,18.7c58.6,58.6,153.6,58.6,212.1,0
		C414.6,297.5,414.6,202.5,356.1,143.9z M320.7,320.7c-32.8,32.8-82.8,38.1-121.1,15.7l136.8-136.8
		C358.8,237.9,353.5,287.9,320.7,320.7z"/>
</g>
<g id="_x27_">
	<polygon class="st0" points="200,100.5 300,100.5 250,150.5 	"/>
</g>
<g id="i_1">
	<polygon points="100,331 100,200 150,200 150,281 	"/>
	<circle cx="125" cy="125" r="25"/>
	<path d="M150,391.7c-7-5.5-14.9-11.8-21.9-18.8c-11.3-11.3-20.6-23.4-28.1-36.6V400h50V391.7z"/>
</g>
</svg>
