<?xml version="1.0" encoding="UTF-8" standalone="no"?><!DOCTYPE svg PUBLIC "-//W3C//DTD SVG 1.1//EN" "http://www.w3.org/Graphics/SVG/1.1/DTD/svg11.dtd"><svg width="100%" height="100%" viewBox="0 0 134 134" version="1.1" xmlns="http://www.w3.org/2000/svg" xmlns:xlink="http://www.w3.org/1999/xlink" xml:space="preserve" xmlns:serif="http://www.serif.com/" style="fill-rule:evenodd;clip-rule:evenodd;stroke-linejoin:round;stroke-miterlimit:2;"><path d="M90.49,48.835c-0,6.998 -5.703,12.672 -12.737,12.672c-7.035,0 -12.738,-5.674 -12.738,-12.672c-0,-6.999 5.703,-12.672 12.738,-12.672c7.034,0 12.737,5.673 12.737,12.672Z" style="fill-rule:nonzero;"/><ellipse cx="56.331" cy="85.123" rx="12.737" ry="12.672"/><path d="M104.151,89.471c-5.12,3.291 -10.812,5.596 -16.779,6.793c1.247,-3.582 1.881,-7.348 1.878,-11.14c-0,-1.416 -0.087,-2.811 -0.256,-4.181c2.568,-0.89 5.022,-2.083 7.309,-3.553c5.52,-3.546 9.9,-8.614 12.609,-14.59c2.702,-5.966 3.615,-12.59 2.629,-19.064c-0.99,-6.479 -3.836,-12.534 -8.192,-17.43c-4.368,-4.908 -10.06,-8.455 -16.39,-10.215c-6.339,-1.764 -13.054,-1.669 -19.34,0.273c-7.097,2.19 -13.29,6.634 -17.637,12.656c-6.479,0.716 -12.788,2.539 -18.65,5.389c1.908,-6.078 5.001,-11.718 9.098,-16.596c6.015,-7.157 13.968,-12.431 22.902,-15.187c8.945,-2.763 18.5,-2.897 27.52,-0.388c9.009,2.504 17.109,7.552 23.326,14.537c6.199,6.968 10.249,15.584 11.658,24.804c1.404,9.213 0.104,18.639 -3.741,27.129c-3.856,8.504 -10.088,15.715 -17.944,20.762l-0,0.001Zm-72.24,-46.238l11.922,1.457c0.282,-2.289 0.798,-4.542 1.539,-6.726c-4.724,1.078 -9.262,2.855 -13.462,5.27l0.001,-0.001Z"/><path d="M29.85,44.487c5.158,-3.316 10.896,-5.63 16.913,-6.82c-1.39,3.759 -2.099,7.736 -2.094,11.744c-0,1.234 0.066,2.454 0.195,3.654c-2.517,0.885 -4.922,2.06 -7.166,3.503c-5.521,3.546 -9.9,8.614 -12.609,14.59c-2.703,5.966 -3.617,12.589 -2.63,19.064c0.99,6.479 3.836,12.534 8.194,17.43c4.368,4.908 10.059,8.455 16.39,10.215c6.338,1.764 13.052,1.669 19.339,-0.272c7.101,-2.192 13.297,-6.64 17.645,-12.667c6.484,-0.726 12.795,-2.562 18.658,-5.426c-1.908,6.095 -5.006,11.752 -9.114,16.643c-6.016,7.157 -13.968,12.431 -22.902,15.187c-8.946,2.763 -18.5,2.897 -27.52,0.388c-9.01,-2.504 -17.109,-7.552 -23.325,-14.537c-6.201,-6.967 -10.252,-15.584 -11.66,-24.804c-1.404,-9.214 -0.103,-18.64 3.744,-27.129c3.855,-8.504 10.087,-15.716 17.943,-20.763l-0.001,-0Z"/></svg>