<?xml version="1.0" encoding="utf-8"?>
<!-- Generator: Adobe Illustrator 24.3.0, SVG Export Plug-In . SVG Version: 6.00 Build 0)  -->
<svg version="1.1" xmlns="http://www.w3.org/2000/svg" xmlns:xlink="http://www.w3.org/1999/xlink" x="0px" y="0px"
	 viewBox="0 0 410 404" style="enable-background:new 0 0 410 404;" xml:space="preserve">
<style type="text/css">
	.st0{fill:#000000;}
</style>
<path class="st0" d="M389.1,44.8L300,61l-6.4,22.3l21.4-4.1c1.3-0.3,2.7-0.4,4-0.4c7.3,0,14,3.7,17.8,10c3.8,6.2,4.2,13.9,0.9,20.4
	L226.4,331.5l-2.5,3.8c-3.9,6-10.5,9.6-17.5,9.6c-6.3,0-12.5-2.9-16.4-7.8c-4-4.9-5.5-11.2-4.2-17.5l14.2-68.5l-5.7,1.7
	c-2,0.6-4.1,0.9-6.1,0.9c-6.3,0-12.2-2.8-16.3-7.7c-4-4.9-5.6-11.3-4.3-17.5l7.8-38.4l-21.2,4.9c-1.6,0.4-3.1,0.5-4.7,0.5
	c-5.8,0-11.3-2.4-15.3-6.6c-3.9-4.2-6-9.9-5.7-15.6l6.4-108.3L21,44.8c-8.3-1.5-14.6,7.4-10.4,14.8l187.6,329.1
	c3.9,6.8,13.6,6.7,17.4-0.1l184-329C403.8,52.1,397.4,43.3,389.1,44.8z"/>
<path class="st0" d="M293,1.6L156.8,28.3c-2.2,0.4-3.9,2.3-4,4.6l-8.4,141.5c-0.2,3.3,2.9,5.9,6.1,5.2l37.9-8.7
	c3.5-0.8,6.8,2.3,6,5.9l-11.3,55.2c-0.8,3.7,2.7,6.9,6.4,5.8l23.4-7.1c3.6-1.1,7.1,2.1,6.3,5.8l-17.9,86.6c-1.1,5.4,6.1,8.4,9.1,3.7
	l2-3.1l111-221.4c1.9-3.7-1.3-7.9-5.4-7.1l-39,7.5c-3.7,0.7-6.8-2.7-5.8-6.3l25.5-88.3C299.8,4.3,296.6,0.9,293,1.6z"/>
</svg>
