<?xml version="1.0" encoding="UTF-8" standalone="no"?>
<!DOCTYPE svg PUBLIC "-//W3C//DTD SVG 1.1//EN" "http://www.w3.org/Graphics/SVG/1.1/DTD/svg11.dtd">
<svg width="100%" height="100%" viewBox="0 0 180 120" version="1.1" xmlns="http://www.w3.org/2000/svg" xmlns:xlink="http://www.w3.org/1999/xlink" xml:space="preserve" xmlns:serif="http://www.serif.com/" style="fill-rule:evenodd;clip-rule:evenodd;stroke-linejoin:round;stroke-miterlimit:2;">
  <g transform="matrix(3.29222e-17,-0.537661,0.537661,3.29222e-17,-57.8724,172.677)">
    <path d="M122.358,284.628C118.8,278.723 118.8,271.335 122.358,265.43C138.362,238.87 183.256,164.365 201.604,133.915C203.287,131.123 206.309,129.415 209.569,129.415C212.83,129.415 215.852,131.123 217.535,133.915C235.883,164.365 280.777,238.87 296.781,265.43C300.339,271.335 300.339,278.723 296.781,284.628C280.777,311.188 235.883,385.693 217.535,416.143C215.852,418.935 212.83,420.643 209.569,420.643C206.309,420.643 203.287,418.935 201.604,416.143C183.256,385.693 138.362,311.188 122.358,284.628Z" />
  </g>
</svg>