<?xml version="1.0" encoding="UTF-8" standalone="no"?><!DOCTYPE svg PUBLIC "-//W3C//DTD SVG 1.1//EN" "http://www.w3.org/Graphics/SVG/1.1/DTD/svg11.dtd"><svg width="100%" height="100%" viewBox="0 0 1000 500" version="1.1" xmlns="http://www.w3.org/2000/svg" xmlns:xlink="http://www.w3.org/1999/xlink" xml:space="preserve" xmlns:serif="http://www.serif.com/" style="fill-rule:evenodd;clip-rule:evenodd;stroke-linecap:square;stroke-miterlimit:10;"><g id="T"><path d="M799.5,400.5l50,0l0,-250l50,0l0,-50l-300,0l0,50l200,0l0,57.427c16,22.366 24.5,49.639 24.5,79.073c0,29.433 -8.5,56.705 -24.5,79.07l0,34.43Z" style="fill-rule:nonzero;stroke:#000;stroke-width:1px;"/></g><g id="s"><path d="M696.348,349.375c12.933,-1.839 25.398,-7.733 35.347,-17.681c18.305,-18.305 22.882,-45.141 13.728,-67.713l-117.822,118.777c-6.976,-4.396 -13.574,-9.632 -19.65,-15.708c-43.934,-43.935 -43.935,-115.165 -0,-159.099c31.234,-31.235 76.265,-40.264 115.476,-27.087l-44.766,44.761c-12.934,1.837 -25.405,7.731 -35.355,17.681c-18.121,18.122 -22.789,44.604 -14.001,67.031l118.097,-118.093c6.975,4.396 13.573,9.631 19.648,15.707c43.934,43.934 43.934,115.164 -0,159.099c-31.235,31.234 -76.266,40.263 -115.477,27.086l44.775,-44.761Z" style="fill-rule:nonzero;stroke:#000;stroke-width:1px;"/></g><g id="i-2" serif:id="i 2"><rect x="499.5" y="200.5" width="50" height="125" style="stroke:#000;stroke-width:1px;"/><path d="M551,125.001c0,13.807 -11.192,25 -25,25c-13.808,0 -25,-11.193 -25,-25c0,-13.807 11.192,-25 25,-25c13.808,0 25,11.193 25,25" style="fill-rule:nonzero;"/><path d="M551,125.001c0,-13.798 -11.202,-25 -25,-25c-13.798,0 -25,11.202 -25,25c0,13.798 11.202,25 25,25c13.798,0 25,-11.202 25,-25Z" style="fill:none;stroke:#000;stroke-width:1px;"/></g><g id="L"><path d="M400.5,400.5l150,0l0,-49l-100,0l0,-251l-50,0l0,58.489c17,26.517 24.92,57.676 24.92,91.011c0,33.335 -9.029,64.743 -25.207,91.261l0.287,59.239Z" style="fill-rule:nonzero;stroke:#000;stroke-width:1px;"/></g><g id="D"><path d="M320.711,320.71c-32.821,32.821 -82.779,38.059 -121.069,15.712l136.778,-136.784c22.349,38.291 17.112,88.251 -15.709,121.072m35.355,-176.776c-5.899,-5.9 -12.168,-11.204 -18.731,-15.915l-209.316,209.315c4.711,6.563 10.016,12.832 15.915,18.731c58.579,58.58 153.553,58.58 212.132,0c58.579,-58.578 58.579,-153.552 -0,-212.131" style="fill-rule:nonzero;"/><path d="M320.711,320.71c-32.821,32.821 -82.779,38.059 -121.069,15.712l136.778,-136.784c22.349,38.291 17.112,88.251 -15.709,121.072Zm35.355,-176.776c-5.899,-5.9 -12.168,-11.204 -18.731,-15.915l-209.316,209.315c4.711,6.563 10.016,12.832 15.915,18.731c58.579,58.58 153.553,58.58 212.132,0c58.579,-58.578 58.579,-153.552 -0,-212.131Z" style="fill:none;fill-rule:nonzero;stroke:#000;stroke-width:1px;"/></g><g id="_-" serif:id="&apos;"><path d="M200,100.5l100,0l-50,50l-50,-50Z" style="fill-rule:nonzero;stroke:#000;stroke-width:1px;"/></g><g id="i-1" serif:id="i 1"><path d="M100,331l0,-131l50,0l0,81l-50,50Z" style="fill-rule:nonzero;"/><path d="M150,125c0,13.807 -11.193,25 -25,25c-13.807,0 -25,-11.193 -25,-25c0,-13.807 11.193,-25 25,-25c13.807,0 25,11.193 25,25" style="fill-rule:nonzero;"/><path d="M150,391.679c-7,-5.544 -14.932,-11.797 -21.894,-18.759c-11.26,-11.261 -20.556,-23.424 -28.106,-36.609l0,63.689l50,-0l0,-8.321Z" style="fill-rule:nonzero;"/></g></svg>