<?xml version="1.0" encoding="UTF-8" standalone="no"?><!DOCTYPE svg PUBLIC "-//W3C//DTD SVG 1.1//EN" "http://www.w3.org/Graphics/SVG/1.1/DTD/svg11.dtd"><svg width="100%" height="100%" viewBox="0 0 128 128" version="1.1" xmlns="http://www.w3.org/2000/svg" xmlns:xlink="http://www.w3.org/1999/xlink" xml:space="preserve" xmlns:serif="http://www.serif.com/" style="fill-rule:evenodd;clip-rule:evenodd;stroke-linejoin:round;stroke-miterlimit:2;"><g id="handwrite"><path d="M15.092,55.567c-0.623,-0.528 -0.519,-1.343 -1.08,-1.979c-0.7,0.67 -1.058,2.459 0,2.519c0.36,-0.222 0.563,-0.575 1.08,-0.54m13.095,-51.12c7.075,5.452 -1.699,12.773 -3.442,18.99c-1.576,3.78 -3.173,7.771 -4.793,11.97c2.239,7.112 1.214,15.613 3.51,22.681c10.305,0.603 35.32,-13.5 43.336,-20.879c18.007,-14.53 24.457,-46.932 -4.863,-51.392c-19.218,-2.711 -38.902,-0.351 -53.593,13.41c-5.342,4.538 -10.434,14.646 -17.28,5.94c12.063,-23.101 42.933,-32.713 67.567,-28.081c34.671,6.393 38.248,34.072 18.022,59.042c-13.713,15.202 -32.336,23.68 -51.569,29.159c4.413,33.256 30.545,68.747 66.42,52.2c-2.816,9.784 -13.788,8.81 -21.803,8.729c-27.613,0.134 -45.718,-31.591 -52.852,-59.849l-8.1,0c-5.59,15.132 -11.874,29.381 -18.09,44.28c-0.736,-0.106 -1.039,0.825 -1.62,0c0.862,-15.413 6.964,-29.909 11.61,-44.82c-4.736,-3.724 -11.169,-5.982 -12.69,-12.239c5.672,-1.021 10.534,5.749 15.795,4.14c8.923,-17.077 14.386,-36.163 22.815,-53.281l1.62,0Z" style="fill:#fff;fill-rule:nonzero;"/><path d="M42.817,89.332c6.975,-26.298 18.567,-51.334 27.675,-76.86c6.679,2.838 5.235,8.777 1.754,13.86c-2.593,6.209 -4.182,11.161 -7.019,17.28c-7.294,19.787 -13.969,38.964 -18.9,59.669c-3.283,12.547 -5.378,25.676 -6.614,37.621c0.322,2.921 -2.16,11.459 1.079,11.88c10.424,0.645 14.328,-9.916 19.711,-17.37c12.923,-23.919 21.046,-50.58 28.62,-76.499c4.089,-8.814 3.134,-19.431 7.828,-27.811c6.602,-1.434 6.639,8.74 5.266,13.049c-4.802,27.816 -12.213,54.707 -10.732,83.251c1.032,3.889 -0.013,15.164 4.252,14.67c24.393,-15.056 35.888,-108.298 39.825,-137.52c1.509,-0.719 2,-1.441 3.51,-2.16c0.749,15.707 -2.924,31.103 -4.456,46.62c-5.071,28.97 -10.523,57.762 -22.477,84.78c-3.584,10.56 -16.079,23.392 -23.962,8.819c-5.131,-15.868 -4.536,-36.172 -1.89,-52.92c-9.37,21.601 -17,44.77 -30.51,64.261c-3.118,3.011 -6.864,5.389 -11.138,5.041c-4.825,-1.204 -10.512,-4.271 -10.462,-10.081c-2.868,-8.713 -0.167,-17.963 1.485,-26.641c1.657,-11.069 4.067,-22.201 7.155,-32.939" style="fill:#fff;fill-rule:nonzero;"/></g></svg>