<?xml version="1.0" encoding="UTF-8" standalone="no"?><!DOCTYPE svg PUBLIC "-//W3C//DTD SVG 1.1//EN" "http://www.w3.org/Graphics/SVG/1.1/DTD/svg11.dtd"><svg width="100%" height="100%" viewBox="0 0 1800 800" version="1.1" xmlns="http://www.w3.org/2000/svg" xmlns:xlink="http://www.w3.org/1999/xlink" xml:space="preserve" xmlns:serif="http://www.serif.com/" style="fill-rule:evenodd;clip-rule:evenodd;stroke-linecap:round;stroke-linejoin:round;stroke-miterlimit:1.5;"><g id="pherical"><path d="M844.275,312.126c7.518,-4.524 16.32,-7.126 25.725,-7.126c27.596,-0 50,22.404 50,50c-0,27.596 -22.404,50 -50,50c-9.405,-0 -18.207,-2.602 -25.725,-7.126" style="fill:none;stroke:#000;stroke-width:16px;"/><path d="M820,485l-0,-160.002c0,-5.304 -2.107,-10.39 -5.857,-14.141c-3.751,-3.75 -8.837,-5.857 -14.141,-5.857c-0.001,-0 -0.002,-0 -0.002,-0" style="fill:none;stroke:#000;stroke-width:16px;"/><path d="M940,225l0,-0c11.046,0 20,8.954 20,20c0,46.895 -0,160 -0,160" style="fill:none;stroke:#000;stroke-width:16px;"/><path d="M984.275,312.126c7.518,-4.524 16.32,-7.126 25.725,-7.126c22.979,-0 40,15.152 40,40l-0,60" style="fill:none;stroke:#000;stroke-width:16px;"/><path d="M1175.6,390.091c-9.07,9.202 -21.676,14.909 -35.604,14.909c-27.596,-0 -50,-22.404 -50,-50c-0,-27.596 22.404,-50 50,-50c13.928,-0 26.534,5.707 35.604,14.909l-35.604,35.605" style="fill:none;stroke:#000;stroke-width:16px;"/><path d="M1210,305l0,-0c11.046,0 20,8.954 20,20c-0,29.183 -0,80 -0,80" style="fill:none;stroke:#000;stroke-width:16px;"/><path d="M1254.28,312.126c7.518,-4.524 16.32,-7.126 25.725,-7.126l10,-0" style="fill:none;stroke:#000;stroke-width:16px;"/><path d="M1330,305l0,-0c11.046,0 20,8.954 20,20c-0,29.183 -0,80 -0,80" style="fill:none;stroke:#000;stroke-width:16px;"/><circle cx="1350" cy="265" r="10" style="fill:none;stroke:#000;stroke-width:12px;"/><path d="M1475.35,390.348c-9.05,9.051 -21.55,14.652 -35.348,14.652c-27.596,-0 -50,-22.404 -50,-50c-0,-27.596 22.404,-50 50,-50c13.798,-0 26.298,5.601 35.348,14.652" style="fill:none;stroke:#000;stroke-width:16px;"/><path d="M1620,405.01l-0.001,-0c-11.039,-0 -19.989,-8.947 -19.994,-19.986c0.005,-19.471 0.008,-46.629 -0.005,-50.024l-0,30.01c-0,22.091 -17.909,39.999 -40,40c0,-0 0,-0 -0,-0c-27.596,-0 -50,-22.405 -50,-50c-0,-27.596 22.409,-49.509 50,-50c6.725,-0 13.141,1.33 19,3.742" style="fill:none;stroke:#000;stroke-width:16px;"/><path d="M1640,225l0,-0c11.046,0 20,8.954 20,20c-0,46.895 -0,160 -0,160" style="fill:none;stroke:#000;stroke-width:16px;"/></g><g id="acuum"><path d="M1050,565l-0.001,-0c-11.039,0 -19.989,-8.946 -19.994,-19.986c0.005,-19.471 0.008,-46.629 -0.005,-50.024l-0,30.01c-0,22.091 -17.909,40 -40,40c0,-0 0,-0 -0,-0c-27.596,-0 -50,-22.404 -50,-50c-0,-27.596 22.409,-49.509 50,-50c6.725,-0 13.141,1.33 19,3.742" style="fill:none;stroke:#000;stroke-width:16px;"/><path d="M1160.35,550.348c-9.05,9.051 -21.55,14.652 -35.348,14.652c-27.596,-0 -50,-22.404 -50,-50c0,-27.596 22.404,-50 50,-50c13.798,-0 26.298,5.601 35.348,14.652" style="fill:none;stroke:#000;stroke-width:16px;"/><path d="M1343.79,556.218c5.628,5.627 13.26,8.786 21.218,8.786c0.373,-0 1.057,-0 1.993,-0c26.51,-0 48,-21.49 48,-48c-0,-25.65 -0,-52.004 -0,-52.004l-0,80.001c0,11.047 8.952,20.003 19.999,20.008c0.001,-0 0.001,-0 0.001,-0" style="fill:none;stroke:#000;stroke-width:16px;"/><path d="M1335,535l-0,-70" style="fill:none;stroke:#000;stroke-width:16px;"/><path d="M1208.79,556.218c5.628,5.627 13.26,8.786 21.218,8.786c0.373,-0 1.057,-0 1.993,-0c26.51,-0 48,-21.49 48,-48c-0,-25.65 -0,-52.004 -0,-52.004l-0,80.001c0,11.047 8.952,20.003 19.999,20.008c0.001,-0 0.001,-0 0.001,-0" style="fill:none;stroke:#000;stroke-width:16px;"/><path d="M1200,535l-0,-70" style="fill:none;stroke:#000;stroke-width:16px;"/><path d="M1460,465l0.002,-0c5.304,-0 10.39,2.107 14.141,5.857c3.75,3.751 5.857,8.837 5.857,14.141c0,29.183 0,80.002 0,80.002" style="fill:none;stroke:#000;stroke-width:16px;"/><path d="M1500.79,468.011c4.344,-1.935 9.154,-3.011 14.214,-3.011c19.317,-0 35,15.683 35,35l0,65" style="fill:none;stroke:#000;stroke-width:16px;"/><path d="M1565,468.011c4.344,-1.935 9.155,-3.011 14.214,-3.011c19.317,-0 35,15.683 35,35l0,65" style="fill:none;stroke:#000;stroke-width:16px;"/></g><g id="SV"><path d="M707.5,310c-2.156,-0 -4.283,-0.13 -6.371,-0.383c-25.976,-3.149 -46.129,-25.298 -46.129,-52.117c0,-28.976 23.524,-52.5 52.5,-52.5c14.488,0 27.613,5.881 37.116,15.384" style="fill:none;stroke:#000;stroke-width:16px;"/><path d="M620,365c0,44.153 35.847,80 80,80c19.522,-0 37.42,-7.007 51.313,-18.642" style="fill:none;stroke:#000;stroke-width:16px;"/><path d="M700,285c44.153,-0 80,35.847 80,80c0,2.048 -0.077,4.078 -0.229,6.087" style="fill:none;stroke:#000;stroke-width:16px;"/><path d="M740,385l0.002,0c10.608,-0 20.782,4.214 28.283,11.715c7.501,7.501 11.715,17.675 11.715,28.283c0,60.93 0,170.002 0,170.002l0,-0c71.797,-0 130,-58.203 130,-130l-0,-20" style="fill:none;stroke:#000;stroke-width:16px;"/></g><path d="M140,630l400,0c0,-16.849 -18.056,-40 -50,-40l-277.371,0l11.901,-20l11.469,-19.864" style="fill:none;stroke:#000;stroke-width:16px;"/><path d="M263.999,501.638l101.764,-176.26" style="fill:none;stroke:#000;stroke-width:16px;"/><path d="M401.057,264.246l54.413,-94.246" style="fill:none;stroke:#000;stroke-width:16px;"/><path d="M340,190c22.79,-0 44.597,4.245 64.672,11.986" style="fill:none;stroke:#000;stroke-width:16px;"/><path d="M453.139,230.037c40.775,33.011 66.861,83.465 66.861,139.963c0,38.633 -12.197,74.439 -32.947,103.775" style="fill:none;stroke:#000;stroke-width:16px;"/><path d="M443.074,517.546c-29.204,20.45 -64.748,32.454 -103.074,32.454c-99.345,0 -180,-80.655 -180,-180" style="fill:none;stroke:#000;stroke-width:16px;"/><path d="M162.381,340.679c12.452,-75.877 72.421,-135.846 148.298,-148.298" style="fill:none;stroke:#000;stroke-width:16px;"/><path d="M160,370l119.172,49.357" style="fill:none;stroke:#000;stroke-width:16px;"/><path d="M331.357,440.97l135.897,56.284l-127.254,-307.254" style="fill:none;stroke:#000;stroke-width:16px;"/></svg>