<?xml version="1.0" encoding="UTF-8" standalone="no"?><!DOCTYPE svg PUBLIC "-//W3C//DTD SVG 1.1//EN" "http://www.w3.org/Graphics/SVG/1.1/DTD/svg11.dtd"><svg width="100%" height="100%" viewBox="0 0 180 120" version="1.1" xmlns="http://www.w3.org/2000/svg" xmlns:xlink="http://www.w3.org/1999/xlink" xml:space="preserve" xmlns:serif="http://www.serif.com/" style="fill-rule:evenodd;clip-rule:evenodd;stroke-linejoin:round;stroke-miterlimit:2;"><g><path d="M95.161,106.89c-3.175,1.913 -7.147,1.913 -10.322,-0c-14.28,-8.605 -54.339,-32.743 -70.711,-42.608c-1.501,-0.904 -2.419,-2.529 -2.419,-4.282c-0,-1.753 0.918,-3.378 2.419,-4.283c16.372,-9.865 56.431,-34.003 70.711,-42.608c3.175,-1.913 7.147,-1.913 10.322,0c14.28,8.605 54.339,32.743 70.71,42.608c1.502,0.905 2.42,2.53 2.42,4.283c-0,1.753 -0.918,3.378 -2.42,4.282c-16.371,9.865 -56.43,34.003 -70.71,42.608Z"/></g></svg>